<svg width="19" height="19" viewBox="0 0 19 19" fill="none" xmlns="http://www.w3.org/2000/svg">
<g id="SVG" clip-path="url(#clip0_66_6087)">
<path id="Vector" d="M15.8574 2.23217V1.23217H3.85739V2.23217H0.857391V6.23217C0.857391 7.83217 2.25739 9.23217 3.85739 9.23217V10.2322C4.25739 11.7322 6.85739 12.8322 8.85739 13.2322V15.2322H5.85739C5.85739 15.2322 4.85739 16.7322 4.85739 17.2322H14.8574C14.8574 16.8322 13.8574 15.2322 13.8574 15.2322H10.8574V13.2322C12.8574 12.8322 15.4574 11.7322 15.8574 10.2322V9.23217C17.4574 9.03217 18.8574 7.83217 18.8574 6.23217V2.23217H15.8574ZM3.85739 7.23217C3.35739 7.23217 2.85739 6.73217 2.85739 6.23217V4.23217H3.85739V7.23217ZM12.2574 9.73217L9.85739 8.23217L7.45739 9.63217L8.45739 6.93217L5.85739 5.23217H8.85739L9.85739 2.53217L10.8574 5.23217H13.6574L11.3574 7.03217L12.3574 9.73217H12.2574ZM16.8574 6.23217C16.8574 6.73217 16.3574 7.23217 15.8574 7.23217V4.23217H16.8574V6.23217Z" fill="#636B74"/>
</g>
<defs>
<clipPath id="clip0_66_6087">
<rect width="18" height="18" fill="white" transform="translate(0.857391 0.232171)"/>
</clipPath>
</defs>
</svg>
