<?xml version="1.0" standalone="no"?>
<!DOCTYPE svg PUBLIC "-//W3C//DTD SVG 20010904//EN"
 "http://www.w3.org/TR/2001/REC-SVG-20010904/DTD/svg10.dtd">
<svg version="1.0" xmlns="http://www.w3.org/2000/svg"
 width="421.000000pt" height="118.000000pt" viewBox="0 0 421.000000 118.000000"
 preserveAspectRatio="xMidYMid meet">

<g transform="translate(0.000000,118.000000) scale(0.100000,-0.100000)"
fill="#000000" stroke="none">
<path d="M2957 1073 c-2 -5 -4 -195 -3 -423 l1 -415 253 -3 252 -2 0 380 c0
326 -2 385 -16 411 -26 52 -60 59 -283 59 -110 0 -202 -3 -204 -7z m391 -170
c-3 -16 -19 -18 -137 -21 -98 -2 -136 1 -142 10 -4 6 -5 16 -3 20 3 4 68 8
145 8 128 0 140 -2 137 -17z m0 -135 c3 -16 -9 -18 -136 -18 -76 0 -142 3
-145 7 -4 3 -2 12 5 20 8 10 41 13 142 11 115 -3 131 -5 134 -20z m2 -133 c0
-13 -22 -15 -139 -15 -127 0 -162 6 -144 24 3 3 69 6 145 6 116 0 138 -2 138
-15z m0 -130 c0 -13 -22 -15 -139 -15 -127 0 -162 6 -144 24 3 3 69 6 145 6
116 0 138 -2 138 -15z m0 -130 c0 -13 -22 -15 -139 -15 -127 0 -162 6 -144 24
3 3 69 6 145 6 116 0 138 -2 138 -15z"/>
<path d="M3564 1066 c-65 -29 -64 -20 -64 -448 l0 -388 250 0 250 0 -2 423 -3
422 -200 2 c-151 2 -208 -1 -231 -11z m321 -166 c0 -12 -22 -15 -129 -18 -125
-3 -156 3 -141 27 4 8 49 11 138 9 109 -3 132 -6 132 -18z m3 -132 c3 -16 -9
-18 -137 -18 -111 0 -141 3 -141 13 0 25 14 28 144 25 115 -3 131 -5 134 -20z
m2 -133 c0 -13 -22 -15 -140 -15 -118 0 -140 2 -140 15 0 13 22 15 140 15 118
0 140 -2 140 -15z m0 -130 c0 -13 -22 -15 -140 -15 -118 0 -140 2 -140 15 0
13 22 15 140 15 118 0 140 -2 140 -15z m5 -130 c0 -10 -258 -20 -283 -10 -7 3
-10 10 -7 15 9 14 290 9 290 -5z"/>
<path d="M2857 943 c-4 -3 -7 -192 -7 -419 0 -366 2 -413 16 -418 24 -9 1217
-7 1232 2 10 7 12 98 10 423 l-3 414 -32 3 -33 3 -2 -378 -3 -378 -555 0 -555
0 -3 378 -2 377 -28 0 c-16 0 -32 -3 -35 -7z"/>
<path d="M910 751 l0 -59 -38 5 c-55 7 -96 -16 -116 -68 -22 -54 -13 -102 26
-134 32 -27 61 -31 105 -14 19 7 29 7 31 0 2 -6 10 -11 18 -11 12 0 14 30 14
170 0 163 -1 170 -20 170 -18 0 -20 -7 -20 -59z m-13 -89 c6 -4 13 -38 15 -77
3 -67 2 -69 -23 -78 -67 -24 -119 32 -98 106 5 20 17 41 27 46 20 12 62 14 79
3z"/>
<path d="M120 767 c-29 -15 -45 -54 -36 -90 4 -19 24 -35 75 -62 74 -39 87
-55 71 -86 -13 -24 -49 -33 -105 -27 -31 4 -45 1 -49 -8 -7 -18 51 -28 110
-19 56 8 84 34 84 78 0 40 -25 66 -101 104 -58 30 -70 51 -43 78 14 13 30 16
71 13 45 -4 53 -2 51 11 -4 21 -93 26 -128 8z"/>
<path d="M1355 626 l0 -156 50 0 c70 0 121 16 145 47 28 36 25 70 -10 103 -29
27 -29 28 -10 45 26 24 25 67 -1 91 -16 14 -40 20 -98 22 l-76 4 0 -156z m139
108 c38 -37 1 -84 -66 -84 l-38 0 0 50 0 50 44 0 c27 0 51 -6 60 -16z m1 -126
c30 -13 41 -48 26 -77 -13 -24 -44 -34 -92 -29 -34 3 -34 3 -37 61 l-3 57 40
0 c22 0 52 -5 66 -12z"/>
<path d="M347 763 c-4 -3 -7 -19 -7 -35 0 -21 -5 -28 -20 -28 -11 0 -20 -7
-20 -15 0 -8 9 -15 20 -15 18 0 20 -7 20 -80 0 -94 18 -123 72 -118 40 4 48
26 11 30 -36 4 -53 38 -53 111 l0 57 35 0 c24 0 35 5 35 15 0 10 -10 15 -30
15 -28 0 -30 3 -30 35 0 33 -16 46 -33 28z"/>
<path d="M2057 763 c-4 -3 -7 -19 -7 -35 0 -21 -5 -28 -20 -28 -11 0 -20 -7
-20 -15 0 -8 9 -15 20 -15 18 0 20 -7 20 -80 0 -94 18 -123 72 -118 40 4 48
26 11 30 -36 4 -53 38 -53 111 l0 57 35 0 c24 0 35 5 35 15 0 10 -10 15 -30
15 -28 0 -30 3 -30 35 0 33 -16 46 -33 28z"/>
<path d="M493 603 c3 -86 6 -98 26 -115 26 -20 57 -23 98 -7 19 7 29 7 31 0 2
-6 13 -11 24 -11 18 0 20 4 14 31 -3 17 -6 69 -6 115 0 76 -2 84 -19 84 -17 0
-18 -6 -13 -87 6 -96 -3 -113 -59 -113 -44 0 -59 32 -59 122 0 72 -2 78 -20
78 -19 0 -20 -5 -17 -97z"/>
<path d="M1009 678 c5 -13 22 -54 39 -93 16 -38 32 -82 35 -97 9 -36 -7 -76
-38 -90 -35 -16 -34 -42 3 -34 35 9 48 27 68 95 9 31 31 93 50 139 39 95 40
102 16 102 -14 0 -23 -18 -41 -80 -13 -44 -27 -82 -30 -85 -4 -2 -20 34 -35
81 -24 75 -30 84 -51 84 -21 0 -23 -3 -16 -22z"/>
<path d="M1643 693 c-13 -2 -23 -10 -23 -16 0 -8 17 -11 52 -9 59 3 72 -3 82
-35 6 -19 2 -22 -45 -28 -85 -12 -125 -69 -79 -115 22 -22 55 -25 97 -9 19 7
29 7 31 0 2 -6 11 -11 20 -11 15 0 16 11 12 100 -3 57 -10 104 -17 111 -13 13
-93 20 -130 12z m117 -143 c0 -35 -26 -53 -73 -48 -69 7 -32 78 40 78 30 0 33
-3 33 -30z"/>
<path d="M1867 693 c-3 -5 -5 -56 -5 -115 -1 -100 1 -108 19 -108 17 0 19 7
19 78 0 90 16 116 67 110 22 -2 28 1 28 17 0 26 -38 32 -70 11 -20 -13 -24
-13 -29 -1 -6 16 -22 20 -29 8z"/>
<path d="M2252 687 c-78 -45 -77 -169 2 -202 41 -17 89 -19 117 -5 32 18 21
25 -31 22 -44 -4 -53 -1 -80 26 -16 17 -30 35 -30 41 0 7 30 11 80 11 l80 0 0
34 c0 19 -8 44 -18 56 -21 26 -87 36 -120 17z m86 -29 c7 -7 12 -20 12 -30 0
-15 -9 -18 -60 -18 -60 0 -61 0 -49 23 7 12 17 25 23 29 17 12 61 9 74 -4z"/>
<path d="M2457 693 c-3 -5 -5 -56 -5 -115 -1 -100 1 -108 19 -108 17 0 19 7
19 78 0 90 16 116 67 110 22 -2 28 1 28 17 0 26 -38 32 -70 11 -20 -13 -24
-13 -29 -1 -6 16 -22 20 -29 8z"/>
</g>
</svg>
