<svg width="19" height="19" viewBox="0 0 19 19" fill="none" xmlns="http://www.w3.org/2000/svg">
<g id="SVG" clip-path="url(#clip0_1_75)">
<path id="Vector" d="M18.6 17.0017L13.46 11.8217H13.11C14.2104 10.4181 14.7335 8.64733 14.5726 6.87106C14.4116 5.09478 13.5787 3.44694 12.2439 2.26401C10.9091 1.08108 9.17304 0.452273 7.3903 0.505994C5.60755 0.559716 3.91255 1.29191 2.65139 2.55307C1.39023 3.81423 0.658036 5.50923 0.604314 7.29198C0.550593 9.07472 1.1794 10.8107 2.36233 12.1455C3.54526 13.4804 5.1931 14.3133 6.96938 14.4743C8.74565 14.6352 10.5164 14.1121 11.92 13.0117V13.3617L17.1 18.5017L18.6 17.0017ZM12.6 7.50167C12.6 8.82776 12.0732 10.0995 11.1355 11.0372C10.1978 11.9749 8.92608 12.5017 7.59999 12.5017C6.27391 12.5017 5.00214 11.9749 4.06446 11.0372C3.12678 10.0995 2.59999 8.82776 2.59999 7.50167C2.59999 6.17559 3.12678 4.90382 4.06446 3.96614C5.00214 3.02846 6.27391 2.50167 7.59999 2.50167C8.92608 2.50167 10.1978 3.02846 11.1355 3.96614C12.0732 4.90382 12.6 6.17559 12.6 7.50167Z" fill="#636B74"/>
</g>
<defs>
<clipPath id="clip0_1_75">
<rect width="18" height="18" fill="white" transform="translate(0.600006 0.501671)"/>
</clipPath>
</defs>
</svg>
