<svg width="117" height="16" viewBox="0 0 117 16" fill="none" xmlns="http://www.w3.org/2000/svg">
<path id="Vector" d="M5.50001 9.3967L3.80001 9.19669C2.50001 9.19669 2.00001 8.59669 2.00001 7.69669C2.00001 6.69669 2.70001 5.8967 4.30001 5.8967C5.30001 5.8967 6.30001 6.19669 6.90001 6.69669L7.90001 5.69669C6.90001 4.99669 5.70001 4.69669 4.30001 4.69669C2.10001 4.69669 0.500011 5.79669 0.500011 7.69669C0.500011 9.39669 1.50001 10.2967 3.50001 10.4967L5.30001 10.5966C6.50001 10.6966 7.00001 11.1967 7.00001 12.1967C7.00001 13.3967 6.00001 13.9967 4.40001 13.9967C3.10001 13.9967 2.00001 13.6967 1.20001 12.8967L0.200012 13.8967C1.40001 14.8967 2.70001 15.1967 4.40001 15.1967C6.90001 15.1967 8.60001 14.0967 8.60001 12.1967C8.40001 10.1967 7.10001 9.5967 5.40001 9.3967H5.50001ZM18.2 4.79666C16.5 4.79666 15.5 5.09669 14.6 6.19669L15.6 7.19669C16.2 6.29669 16.8 5.99667 18.2 5.99667C20 5.99667 20.8 6.79669 20.8 8.19669V9.19669H17.7C15.4 9.19669 14.1 10.3967 14.1 12.1967C14.1 12.8967 14.4 13.6967 14.9 14.1967C15.6 14.9967 16.3 15.1967 17.8 15.1967C18.3418 15.2426 18.8872 15.1776 19.403 15.0057C19.9188 14.8338 20.3942 14.5585 20.8 14.1967V15.1967H22.3V8.19669C22.2 5.89669 20.9 4.79666 18.2 4.79666ZM20.8 11.4967C20.8 12.3967 20.6 12.8967 20.3 13.1967C19.6 13.7967 18.8 13.8967 18 13.8967C16.3 13.8967 15.7 13.2967 15.7 12.1967C15.7 10.9967 16.4 10.3967 18 10.3967H20.9L20.8 11.4967ZM28 6.09665C29 6.09665 29.6 6.39666 30.4 7.29666L31.4 6.29666C30.3 5.19666 29.4 4.79666 28 4.79666C25.4 4.79666 23.4 6.49665 23.4 10.0966C23.4 13.4966 25.4 15.2967 28 15.2967C29.4 15.2967 30.3 14.9967 31.3 13.7967L30.3 12.7967C29.5 13.7967 28.9 13.9967 28 13.9967C27.5426 14.0085 27.0885 13.9155 26.6725 13.7249C26.2565 13.5342 25.8897 13.2509 25.6 12.8967C25.1 12.1967 24.9 11.3966 24.9 10.0966C24.9 8.79665 25.1 7.99666 25.6 7.29666C26.2 6.49666 27.1 6.09665 28 6.09665ZM40.9 4.8967H39.1L34.5 9.3967V0.296661H32.9V15.0966H34.5V11.2967L36.3 9.49667L39.8 15.0966H41.5L37.3 8.3967L40.8 4.8967H40.9ZM47.9 4.59665C46.4 4.59665 45.3 5.1967 44.6 5.8967C43.6 6.8967 43.4 8.19665 43.4 10.0966C43.4 11.9966 43.7 13.1966 44.6 14.0966C45.3 14.8966 46.4 15.4967 47.9 15.4967C49.4 15.4967 50.6 14.9967 51.2 14.1967C52.2 13.1967 52.4 11.9966 52.4 10.0966C52.4 8.09665 52.1 6.8967 51.2 5.8967C50.6 5.1967 49.5 4.59665 47.9 4.59665ZM49.2 12.5966C48.9 12.8966 48.5 12.9967 47.9 12.9967C47.3 12.9967 46.9 12.8966 46.7 12.5966C46.1 11.9966 46.1 10.9967 46.1 9.99667C46.1 8.79667 46.1 7.9967 46.7 7.3967C46.9 7.0967 47.3 6.8967 47.9 6.8967C48.5 6.8967 48.9 7.0967 49.2 7.3967C49.7 7.9967 49.7 8.79667 49.7 9.99667C49.8 11.0967 49.7 11.9966 49.2 12.5966ZM59.5 4.69669L57.4 11.2967L55.2 4.69669H52.4L56.4 15.2967H58.4L62.4 4.69669H59.5ZM66.8 4.59665C64 4.59665 62.2 6.59665 62.2 10.0966C62.2 14.3966 64.6 15.4967 67.1 15.4967C69.1 15.4967 70.1 14.9967 71.1 13.8967L69.5 12.4967C69.2006 12.8327 68.8294 13.0971 68.414 13.2702C67.9985 13.4433 67.5494 13.5207 67.1 13.4967C65.6 13.4967 64.8 12.4967 64.8 10.9967H71.4V9.8967C71.4 6.8967 69.8 4.69669 66.8 4.69669V4.59665ZM64.8 8.99667C64.8 8.49667 64.8 8.1967 65.1 7.8967C65.4 7.1967 65.9 6.69669 66.9 6.69669C67.2835 6.70304 67.6571 6.81956 67.9763 7.03232C68.2954 7.24508 68.5466 7.54513 68.7 7.8967C68.9 8.1967 68.9 8.49667 69 8.99667H64.8ZM75.3 5.79666V4.69669H72.8V15.2967H75.4V8.8967C75.4 7.5967 76.3 6.99667 77.2 6.99667C77.8 6.99667 78.2 7.19669 78.6 7.69669L80.6 5.69669C79.8 4.89669 79.2 4.69669 78.1 4.69669C76.9 4.59669 75.9 5.09669 75.3 5.69669V5.79666ZM80.7 3.49667V15.2967H83.4V6.8967H85.4V4.8967H83.4V3.69669C83.4 3.19669 83.7 2.69669 84.4 2.69669H85.4V0.59668H83.9C81.7 0.59668 80.7 2.09665 80.7 3.59665V3.49667ZM96.9 4.59665C95.4 4.59665 94.3 5.1967 93.7 5.8967C92.7 6.8967 92.4 8.19665 92.4 10.0966C92.4 11.9966 92.7 13.1966 93.7 14.0966C94.3 14.8966 95.4 15.4967 96.9 15.4967C98.5 15.4967 99.6 14.9967 100.2 14.1967C101.2 13.1967 101.4 11.9966 101.4 10.0966C101.4 8.09665 101.1 6.8967 100.2 5.8967C99.6 5.1967 98.5 4.59665 96.9 4.59665ZM98.2 12.5966C97.9 12.8966 97.5 12.9967 96.9 12.9967C96.3 12.9967 95.9 12.8966 95.7 12.5966C95.1 11.9966 95.1 10.9967 95.1 9.99667C95.1 8.79667 95.2 7.9967 95.7 7.3967C96 7.0967 96.3 6.8967 96.9 6.8967C97.5 6.8967 97.9 7.0967 98.2 7.3967C98.7 7.9967 98.7 8.79667 98.7 9.99667C98.7 11.0967 98.7 11.9966 98.2 12.5966ZM114 4.69669L112.3 11.2967L110.1 4.69669H108.1L105.9 11.2967L104.2 4.69669H101.5L104.8 15.2967H107L109.2 8.59665L111.4 15.2967H113.6L116.9 4.69669H114.1H114ZM89.4 12.0966V0.496674H86.7V12.2967C86.7 13.7967 87.7 15.2967 89.8 15.2967H91.4V13.0966H90.4C89.7 13.0966 89.4 12.7966 89.4 12.0966ZM12.5 6.49667L13.9 5.19669H10.9V1.79666H9.50001V12.4967C9.50001 13.9967 10.4 15.1967 12.1 15.1967H13.1V13.9967H12.4C11.4 13.9967 11 13.3967 11 12.4967V6.49667H12.5Z" fill="#222426"/>
</svg>
